<?xml version="1.0" standalone="no"?>
<!DOCTYPE svg PUBLIC "-//W3C//DTD SVG 20010904//EN"
 "http://www.w3.org/TR/2001/REC-SVG-20010904/DTD/svg10.dtd">
<svg version="1.0" xmlns="http://www.w3.org/2000/svg"
 width="495.000000pt" height="453.000000pt" viewBox="0 0 495.000000 453.000000"
 preserveAspectRatio="xMidYMid meet">
<g transform="translate(0.000000,453.000000) scale(0.100000,-0.100000)"
fill="#000000" stroke="none">
<path d="M498 4406 c-38 -13 -87 -36 -110 -52 -50 -34 -146 -130 -159 -159 -5
-11 -13 -27 -18 -35 -6 -8 -18 -31 -28 -50 -17 -33 -18 -118 -21 -1797 -1
-1058 1 -1784 7 -1815 34 -191 185 -347 381 -394 44 -11 415 -13 1930 -14
2068 0 1955 -3 2070 62 8 4 24 12 36 17 11 5 48 39 81 75 61 67 115 161 129
226 13 62 17 3444 4 3535 -27 182 -155 336 -335 401 l-66 24 -1917 0 -1917 -1
-67 -23z m2212 -476 c14 -21 12 -104 -2 -118 -17 -17 -319 -17 -336 0 -7 7
-12 36 -12 65 0 46 3 55 23 63 12 5 89 8 170 7 119 -2 150 -5 157 -17z m840
-257 c0 -4 -21 -48 -46 -98 -60 -119 -59 -117 -72 -140 -7 -11 -17 -31 -23
-45 -5 -13 -16 -28 -22 -32 -7 -4 -132 -8 -279 -8 -162 0 -268 -4 -268 -9 0
-6 12 -23 26 -38 39 -42 124 -175 124 -194 0 -9 7 -22 15 -29 8 -7 15 -23 15
-35 0 -12 9 -43 20 -69 l21 -46 239 0 c136 0 241 -4 245 -9 3 -5 -20 -58 -51
-118 -31 -59 -66 -125 -76 -146 -11 -20 -25 -40 -32 -45 -6 -4 -83 -9 -171
-12 l-160 -5 -6 -40 c-10 -73 -67 -227 -112 -300 -31 -51 -130 -174 -168 -211
-123 -115 -297 -219 -439 -261 -185 -55 -250 -64 -515 -72 l-230 -6 -3 -110
c-1 -60 -5 -116 -8 -124 -3 -10 -26 6 -74 54 l-70 69 0 208 c0 160 3 208 13
208 6 1 62 1 122 1 470 0 682 61 860 250 34 35 74 91 90 124 15 33 34 72 41
86 15 29 21 109 10 127 -6 10 -149 12 -614 12 l-607 -1 -3 24 c-2 13 4 30 12
37 9 7 16 16 16 21 0 4 13 27 29 51 16 24 39 61 51 83 12 22 29 54 39 70 l18
30 512 3 c570 2 541 -2 505 70 -31 61 -89 136 -139 180 -56 49 -149 112 -165
112 -7 0 -24 6 -38 14 -69 36 -125 41 -482 46 -350 5 -355 5 -358 26 -2 11 4
27 13 34 8 7 15 19 15 28 0 8 6 23 14 31 7 9 28 43 46 76 18 33 44 77 57 98
l23 37 1020 0 c561 0 1020 -3 1020 -7z m-391 -1388 c125 -95 216 -227 250
-360 4 -17 14 -42 21 -55 10 -19 14 -77 14 -230 0 -211 -7 -257 -50 -342 -8
-14 -14 -31 -14 -37 0 -18 -64 -118 -110 -171 -40 -47 -119 -113 -175 -147
-79 -48 -229 -103 -316 -118 -54 -8 -62 -24 -64 -126 -1 -66 -6 -93 -16 -100
-16 -10 -288 -12 -313 -3 -13 5 -16 23 -16 93 0 55 -5 93 -12 103 -8 11 -48
22 -110 33 -95 15 -251 60 -299 86 -102 53 -134 71 -177 100 -24 16 -46 29
-50 29 -4 0 -17 11 -30 24 -22 23 -22 29 -22 264 0 149 4 243 10 247 5 3 54
-31 107 -77 91 -78 145 -118 211 -160 47 -29 172 -88 188 -88 8 0 28 -7 45
-16 19 -9 49 -14 82 -12 l52 3 5 233 5 234 95 40 c52 22 122 58 154 79 33 22
66 38 74 37 11 -3 14 -52 12 -304 -1 -235 2 -303 12 -312 23 -18 151 52 208
115 60 66 85 117 101 211 10 58 10 86 -1 145 -7 39 -19 79 -27 88 -7 8 -13 23
-13 32 0 9 -29 46 -65 83 -36 37 -65 72 -65 79 0 7 10 20 21 31 21 18 121 149
146 189 7 11 23 44 37 73 14 28 28 52 31 52 4 0 33 -20 64 -45z"/>
</g>
</svg>
